<svg xmlns="http://www.w3.org/2000/svg" version="1.1" xmlns:xlink="http://www.w3.org/1999/xlink" width="2000" height="100" viewBox="0 0 2000 100"><svg xml:space="preserve" width="2000" height="100" data-version="2" data-id="lg_mGHyEAKRDFfdAO9LXi" viewBox="0 0 565 100" x="0" y="0"><rect width="100%" height="100%" fill="transparent"></rect><path fill="#d0a98f" d="M19.86 79.755q-4.13 0-7.35-1.04-3.23-1.05-5.08-2.76.23-4.55.97-9.67.74-5.13 1.81-9.86 1.07-4.73 2.18-8.03-1.62-4.91-2.85-11.08t-2.21-12.34q-.97-6.17-1.81-11.04.89-1.35 3.04-2.74 2.16-1.39 5.22-2.34 3.06-.95 6.5-.95 2.18 0 4.1.42 1.93.41 3.6 1.43l-3.34 38.69q1.06-.14 2.32-.28 1.25-.14 2.59-.28 1.81-3.43 3.88-7.95 2.06-4.52 3.73-8.84 1.67-4.31 2.27-7.14l-6.54-2.32q.51-4.96 2.53-9.05 2.02-4.08 5.36-5.61 1.99 0 5.29.79 3.29.79 6.75 2.57 3.45 1.79 5.86 4.85-.41 3.53-2.04 7.75-1.62 4.22-3.99 8.65-2.36 4.43-5.03 8.65-2.67 4.22-5.17 7.75.97 1.85 2.43 4.5 1.47 2.64 3.16 5.19 1.69 2.55 3.36 4.18 1.58-.56 3.16-1.63 1.57-1.06 3.1-2.36l5.48 4.73q0 3.66-1.42 7.23-1.41 3.58-2.94 5.8-1.44 2.09-3.57 3.09-2.14.99-4.74.99-2.64 0-5.66-.97-2.78-.88-4.59-3.46-1.81-2.57-3.01-5.77-1.07-2.83-1.79-6.19-.72-3.37-1.09-5.92l-4.66-.37q-2.39-.18-4.34-.42.88 5.01 1.65 10.56.76 5.54 1.09 10.78-1.49.98-3.62 1.39-2.13.42-4.59.42m69.86 0q-2.32-.23-5.34-.9-3.01-.68-6.05-1.67-3.04-1-5.54-2.21-2.51-1.2-3.76-2.46-1.67-10.62-2.62-20.68-.95-10.07.48-19.67 1.03-1.3 3.67-2.78 2.64-1.49 5.94-2.86 3.29-1.37 6.31-2.34 3.01-.97 4.77-1.21 3.9.37 8.28 1.84 4.39 1.46 8.19 3.61 3.8 2.16 5.85 4.62.46 2.09.6 4.38.14 2.3.14 6.2 0 4.59-.56 9.97-.56 5.38-1.39 10.16-.84 4.78-1.62 7.65-.89 1.02-3.25 2.51-2.37 1.48-4.36 2.5-2.97 1.49-5.22 2.3-2.25.81-4.52 1.04m1.02-11.13 2.55-1.76q.23-2.56.3-5.13.07-2.57.07-5.17 0-3.53-.19-7.19-.18-3.67-.6-7.66l-7.14-2.92-2.79 1.35q-.55 5.56-.55 11.18 0 3.43.16 6.93.16 3.5.49 7.03 1.44.93 3.36 1.88 1.93.95 4.34 1.46m39.05 11.13q-2.13 0-4.26-1.16-2.14-1.16-3.99-2.85-1.86-1.69-3.25-3.32-.69-.79-1.11-1.97-.42-1.18-.05-3.18l3.2-16.56q-.83-4.36-1.62-9.58-.79-5.21-1.46-10.39-.68-5.17-1.19-9.53-.51-4.36-.74-7.17-.23-2.8-.18-3.22 2.22-2.83 6.31-4.8 4.08-1.97 8.21-2.02 1.99-.04 3.85.47 1.85.51 3.34 1.71-.24 7.33-.77 15.4t-1.41 18.35q-.89 10.27-2.28 24.33l6.64-3.11 3.71 5.89q-.88 2.69-2.83 5.64-1.95 2.94-4.57 5.01-2.62 2.06-5.55 2.06m29.04 0q-2.13 0-4.26-1.16-2.14-1.16-3.99-2.85-1.86-1.69-3.25-3.32-.7-.79-1.11-1.97-.42-1.18-.05-3.18l3.2-16.56q-.83-4.36-1.62-9.58-.79-5.21-1.46-10.39-.68-5.17-1.19-9.53-.51-4.36-.74-7.17-.23-2.8-.19-3.22 2.23-2.83 6.31-4.8 4.09-1.97 8.21-2.02 2-.04 3.85.47 1.86.51 3.34 1.71-.23 7.33-.76 15.4t-1.42 18.35q-.88 10.27-2.27 24.33l6.63-3.11 3.71 5.89q-.88 2.69-2.82 5.64-1.95 2.94-4.57 5.01-2.62 2.06-5.55 2.06m44.26 19.39q-3.48-.05-7.12-1.32-3.65-1.28-6.48-3.02-2.82-1.74-3.85-3.08-.18-2.65.19-4.62.37-1.97.97-3.36 2.28.51 5.78 1.02 3.5.51 6.98.86 3.48.35 5.61.35.24-4.5.05-10.28-.19-5.77-.39-11.48-.21-5.7-.17-10.06l-.46-.14q-.97 2.45-2.69 6.03-1.72 3.57-3.83 7.3-2.11 3.74-4.2 6.78-2.08 3.03-3.75 4.47-1.35 1.11-2.6 1.16-1.25.05-2.74-.67-1.48-.72-2.83-1.69-1.11-.84-2.64-1.77t-2.67-2.02q-1.14-1.09-1.14-2.29l3.9-19.07-7.19-19.99q1.3-3.25 4.11-5.15 2.8-1.9 6.14-2.73 3.34-.84 6.29-.77 2.94.07 4.47.77.47 4.68.49 10.25.02 5.56-.3 11.13-.23 4.22-.7 7.84-.46 3.62-1.39 7.84l1.39.65q1.3-1.25 2.86-3.64 1.55-2.39 3.04-5.11 1.48-2.71 2.57-5.1 1.09-2.39 1.41-3.69-.55-6.63-.83-10.57-.28-3.95-.39-5.94-.12-1.99-.12-2.74.74-.51 2.92-.9 2.18-.4 4.87-.4 8.12 0 12.85 5.62 0 1.71-1.04 5.47-1.05 3.76-4.39 9.83l6.41 36.79q-.98 3.85-3.55 7.28-2.58 3.43-6.17 6.03-3.6 2.6-7.68 3.99-.97.14-1.99.14m72.17-19.34q-3.66 0-6.95-.81-3.3-.82-5.01-2.35.23-3.94.69-6.07.47-2.14 1.02-3.62L262 56.145q-1.16 3.94-2.41 8.05-1.26 4.1-2.74 7.68.69 1.94.69 4.96-.88 1.44-3.73 2.18-2.85.74-6.19.74-3.48 0-6.78-.79-3.29-.79-4.96-2.32.37-4.77.72-6.98.35-2.2 1.09-3.96l-7.1-19.02-7.14-12.76q0-2.55 1.92-4.78 1.93-2.22 4.74-3.62 2.8-1.39 5.4-1.39 2.6 0 4.8.98 2.2.97 3.32 3.01.14.98.69 3.88.56 2.9 1.37 6.98t1.65 8.69q.83 4.62 1.58 9.05.74 4.43 1.16 7.96l.6.04q1.11-3.15 2.13-6.91 1.02-3.76 1.81-7.31.79-3.54 1.07-5.96-2.14-1.76-4.2-3.66-2.06-1.9-3.69-5.29 1.12-3.2 3.69-5.91 2.58-2.72 5.75-4.53 3.18-1.81 6.15-2.18 3.43 2.74 5.59 7.7 2.16 4.97 2.53 9.65l-.1.05q.93 3.85 1.86 8.21.93 4.36 1.67 8.53.74 4.18 1.07 7.52h.69q1.16-3.16 2.21-6.89 1.04-3.73 1.83-7.26.79-3.52 1.06-5.94-2.13-1.76-4.19-3.66-2.07-1.9-3.69-5.29 1.11-3.2 3.69-5.91 2.57-2.72 5.75-4.53t6.14-2.18q3.44 2.74 5.59 7.7 2.16 4.97 2.53 9.65-.69 1.58-2.04 4.69-1.34 3.11-3.15 7.07-1.81 3.97-3.95 8.26-2.13 4.29-4.36 8.32.84 1.54 1.56 3.46.72 1.93 1.32 4.66-1.72 1.53-4.96 2.28-3.25.74-6.78.74m50.43-.05q-2.32-.23-5.34-.9-3.01-.68-6.05-1.67-3.04-1-5.55-2.21-2.5-1.2-3.75-2.46-1.67-10.62-2.62-20.68-.95-10.07.48-19.67 1.02-1.3 3.67-2.78 2.64-1.49 5.94-2.86 3.29-1.37 6.3-2.34 3.02-.97 4.78-1.21 3.9.37 8.28 1.84 4.39 1.46 8.19 3.61 3.8 2.16 5.84 4.62.47 2.09.61 4.38.14 2.3.14 6.2 0 4.59-.56 9.97-.56 5.38-1.39 10.16-.84 4.78-1.63 7.65-.88 1.02-3.24 2.51-2.37 1.48-4.36 2.5-2.97 1.49-5.22 2.3-2.25.81-4.52 1.04m1.02-11.13 2.55-1.76q.23-2.56.3-5.13.07-2.57.07-5.17 0-3.53-.19-7.19-.18-3.67-.6-7.66l-7.14-2.92-2.79 1.35q-.55 5.56-.55 11.18 0 3.43.16 6.93.16 3.5.49 7.03 1.43.93 3.36 1.88 1.92.95 4.34 1.46m49.26 11.13q-2.32-.23-5.34-.9-3.01-.68-6.05-1.67-3.04-1-5.54-2.21-2.51-1.2-3.76-2.46-1.67-10.62-2.62-20.68-.95-10.07.49-19.67 1.02-1.3 3.66-2.78 2.65-1.49 5.94-2.86 3.29-1.37 6.31-2.34 3.01-.97 4.78-1.21 3.89.37 8.28 1.84 4.38 1.46 8.18 3.61 3.81 2.16 5.85 4.62.46 2.09.6 4.38.14 2.3.14 6.2 0 4.59-.56 9.97-.55 5.38-1.39 10.16-.83 4.78-1.62 7.65-.88 1.02-3.25 2.51-2.36 1.48-4.36 2.5-2.97 1.49-5.22 2.3-2.25.81-4.52 1.04m1.02-11.13 2.55-1.76q.23-2.56.3-5.13.07-2.57.07-5.17 0-3.53-.18-7.19-.19-3.67-.61-7.66l-7.14-2.92-2.78 1.35q-.56 5.56-.56 11.18 0 3.43.16 6.93.16 3.5.49 7.03 1.44.93 3.36 1.88 1.93.95 4.34 1.46m40.08 11.13q-1.25.05-2.53-.67-1.28-.72-2.62-1.69-1.16-.84-2.6-1.58-1.44-.74-2.48-1.67-1.04-.93-1.09-2.14-.14-7.83-.44-16.72-.3-8.88-2.95-17.97-.55-1.9-.55-2.55 0-1.02 1.16-2.56 2.83-3.66 6.4-5.61 3.57-1.95 6.52-2.73 2.94-.79 3.82-.89 3.76 2.55 6.4 6.36 2.65 3.8 4.78 7.37l.23-.09q-.23-2.74-.65-6.42-.41-3.69-.9-7.59-.49-3.89-.95-7.35-.47-3.46-.77-5.82-.3-2.37-.35-2.92.79-.98 3.44-1.74 2.64-.77 5.98-.77 3.2 0 6.54.91 3.34.9 5.8 3.22.09.7 0 4.15-.09 3.46-.37 8.7-.28 5.24-.77 11.36-.48 6.13-1.13 12.25-.65 6.12-1.49 11.34-.83 5.22-1.85 8.61l7.93-4.27 4.08 5.61q-1.53 3.71-3.55 6.84-2.01 3.13-4.38 5.06-2.37 1.92-5.06 1.97-2.13.05-4.66-1.27-2.53-1.33-4.47-3.37-.89-.93-1.79-2.18-.91-1.25-.63-4.36.28-3.52.49-6.52.21-2.99.39-6.19l-.23-.09q-.93 2.46-2.32 5.75-1.39 3.29-3.04 6.68-1.64 3.39-3.38 6.17t-3.41 4.22q-1.3 1.07-2.55 1.16m2.6-17.3 1.39.65q1.3-1.25 2.78-3.5 1.48-2.25 2.92-4.78 1.44-2.53 2.55-4.76 1.12-2.22 1.67-3.43.1-.93.1-.97v-.42q0-.37-.05-2.32-2.78-.7-5.17-1.16-2.39-.46-4.62-.97l.1 4.96q.09 4.22-.38 8.35-.46 4.13-1.29 8.35m48.1 17.95q-3.62-1.58-6.63-4.15-3.02-2.58-4.37-6.47.28-.84 1.61-2.72 1.32-1.87 3.08-4.03t3.41-3.9q1.65-1.74 2.53-2.34 4.45 1.25 8.05 4.17 3.59 2.93 5.96 6.22-.7 3.06-3.18 5.82-2.48 2.76-5.43 4.73-2.94 1.97-5.03 2.67m31.68-.65q-1.62 0-3.85-.95t-4.34-2.55q-2.11-1.6-3.5-3.5-1.39-1.91-1.39-3.76 0-.65.09-1.11.1-.47.49-1.58t1.28-3.55q.88-2.44 2.5-6.98l-6.08-24.17q1.39-1.71 3.78-3.25 2.39-1.53 5.29-2.5t5.78-.97q2.13 0 4.08.62 1.95.63 3.57 2.07-.14.69-.42 3.29-.27 2.6-.69 6.35-.42 3.76-.95 8.03-.54 4.27-1.21 8.3-.67 4.04-1.41 7.1l-.89 3.62 6.96-3.11 3.67 5.8q-.98 2.27-2.81 5.29-1.83 3.01-4.36 5.26-2.53 2.25-5.59 2.25m-1.99-58.77q-2.23-.14-4.39-1.23-2.15-1.09-3.71-2.6-1.55-1.51-1.97-2.9 1.35-3.29 2.18-5.4.84-2.11 1.51-3.9.67-1.78 1.37-4.1 2.87 0 6.19.88 3.32.88 5.96 3.06t3.48 6.12q-1.35 3.2-4.55 6.01-3.2 2.81-6.07 4.06m41.09 58.77q-2.31-.23-5.33-.9-3.01-.68-6.05-1.67-3.04-1-5.55-2.21-2.5-1.2-3.75-2.46-1.67-10.62-2.62-20.68-.96-10.07.48-19.67 1.02-1.3 3.67-2.78 2.64-1.49 5.93-2.86 3.3-1.37 6.31-2.34 3.02-.97 4.78-1.21 3.9.37 8.28 1.84 4.38 1.46 8.19 3.61 3.8 2.16 5.84 4.62.47 2.09.61 4.38.14 2.3.14 6.2 0 4.59-.56 9.97-.56 5.38-1.39 10.16-.84 4.78-1.63 7.65-.88 1.02-3.24 2.51-2.37 1.48-4.36 2.5-2.97 1.49-5.22 2.3-2.25.81-4.53 1.04m1.03-11.13 2.55-1.76q.23-2.56.3-5.13.07-2.57.07-5.17 0-3.53-.19-7.19-.18-3.67-.6-7.66l-7.14-2.92-2.79 1.35q-.55 5.56-.55 11.18 0 3.43.16 6.93.16 3.5.49 7.03 1.43.93 3.36 1.88 1.92.95 4.34 1.46"></path></svg></svg>